<svg width="100" height="100" viewBox="0 0 100 100" fill="none" xmlns="http://www.w3.org/2000/svg">
<rect width="100" height="100" rx="22" fill="#0B0710"/>
<svg x="23.163" y="22.000" width="53.673" height="56.000" viewBox="0 0 46.0055 48" preserveAspectRatio="xMidYMid meet" overflow="visible">
<g id="Logo">
<path id="Vector 16" d="M44.0546 21.4864H36.6614" stroke="white" stroke-width="0.4"/>
<path id="Vector" fill-rule="evenodd" clip-rule="evenodd" d="M36.8141 21.5782C38.5997 33.0078 30.731 44.0925 21.3391 44.0925C18.0157 44.0925 14.9149 42.6361 12.2954 40.2718C14.2066 41.117 16.2807 41.58 18.4481 41.58C27.9809 41.58 35.7088 32.6249 35.7088 21.5782C35.7088 10.5316 27.9809 1.57649 18.4481 1.57649C16.9476 1.57649 15.4919 1.79836 14.1039 2.21534C16.2993 0.811668 18.7517 0 21.3391 0C30.731 0 38.2596 8.71997 36.8141 21.5782Z" fill="white"/>
<g id="Group 6">
<g id="Vector 8">
<path d="M12.9704 23.6396L14.6732 22.3839L15.6413 21.8382L16.5618 21.4879L17.6764 21.1641L18.76 20.877C19.3571 20.7577 19.9645 20.6977 20.5734 20.6977H20.8343C21.5351 20.6977 22.235 20.7494 22.9282 20.8524L23.0944 20.877L23.8523 21.09C24.0279 21.1393 24.1992 21.2027 24.3646 21.2795L24.856 21.5078C24.9804 21.5656 25.116 21.5956 25.2532 21.5956C25.5331 21.5956 25.8033 21.4598 26.0682 21.369C26.4324 21.2441 26.9192 21.2237 27.1785 21.199C27.5462 21.1641 28.048 21.1641 28.6363 21.1641H29.5961H30.401H31.1751H32.6612H33.3833C33.4998 21.1641 33.6157 21.1471 33.7273 21.1137L33.8757 21.0693C34.263 20.9535 34.5387 20.6109 34.569 20.2078C34.5767 20.1045 34.6009 20.0031 34.6405 19.9075L34.8514 19.3982C34.9179 19.2378 35.0174 19.092 35.1423 18.9714C35.3769 18.7448 35.6918 18.6168 36.0179 18.6168C36.173 18.6168 36.3267 18.6455 36.4714 18.7013L36.8958 18.8653C37.0216 18.9139 37.1311 18.9973 37.2113 19.1058L37.2467 19.1537C37.3784 19.3316 37.4032 19.5669 37.3117 19.7684L37.2578 19.8872C37.1923 20.0313 37.2166 20.2004 37.32 20.3203C37.4076 20.4217 37.4394 20.5599 37.4051 20.6894L37.3361 20.9498L37.2208 21.2506C37.1388 21.4643 37.1762 21.7055 37.319 21.8843C37.4103 21.9987 37.46 22.1407 37.46 22.287V22.3899C37.46 22.6124 37.3571 22.8225 37.1813 22.9589C36.8595 23.2613 36.4497 23.4533 36.0113 23.5072L35.6599 23.5503C35.5603 23.5626 35.4593 23.559 35.3607 23.5399L35.0685 23.4831C34.884 23.4472 34.7368 23.3082 34.6902 23.1262C34.6068 22.7998 34.2248 22.6551 33.946 22.8442L32.9956 23.4889C32.9174 23.542 32.8452 23.6035 32.7803 23.6724L31.3918 25.1464C31.1131 25.5052 30.1844 26.3195 29.7509 26.5466C29.4103 26.725 28.4815 27.0479 28.048 27.0837L27.0992 27.1546C26.7642 27.1796 26.4275 27.1459 26.1041 27.0551L25.8685 26.989C25.7535 26.9567 25.6438 26.9077 25.543 26.8436C25.0684 26.542 24.4495 26.6026 24.0424 26.9904L23.9434 27.0847C23.8339 27.189 23.7082 27.2749 23.5713 27.3389L23.334 27.4499C22.7864 27.7061 22.1979 27.8636 21.5956 27.9153L21.3787 27.9339C21.0178 27.9649 20.6542 27.9424 20.2998 27.867C19.8752 27.7767 19.4699 27.612 19.1027 27.3803L18.8838 27.2422L18.8972 27.2584C19.1487 27.5636 19.2863 27.9468 19.2863 28.3423C19.2863 28.7129 19.1655 29.0735 18.9421 29.3693L18.7791 29.5852C18.684 29.7111 18.5761 29.8267 18.4571 29.9301L18.2683 30.0942C18.0188 30.311 17.7475 30.5013 17.4586 30.662C16.7182 31.0738 15.9378 31.4094 15.1296 31.6637L14.1779 31.963L12.6298 32.6805L12.1385 32.9393C11.5652 33.2413 11.0666 33.6678 10.6794 34.1874L10.2459 34.8601L9.9979 35.3055C9.85392 35.5641 9.73294 35.8349 9.63636 36.1147C9.48615 36.5499 9.39612 37.0035 9.36877 37.4631L9.34807 37.8109V38.1542C9.34807 38.5224 9.38521 38.8896 9.45893 39.2503C9.57057 39.7965 9.72959 40.332 9.93418 40.8506L10.1221 41.3269C10.4724 42.306 10.8982 43.2566 11.3955 44.1699L12.2893 45.8115L13.4658 48L12.2274 46.0985L10.8032 44.0176L9.78151 42.6184L8.97654 41.3986L8.0787 39.6765C7.52542 38.4892 7.17746 37.2167 7.04963 35.9131L6.93317 34.7255V34.2197C6.93317 33.0569 7.1113 31.9011 7.46136 30.7923C7.72753 29.9492 8.09101 29.14 8.54443 28.3811L8.6979 28.1242L8.90374 27.8197C9.70011 26.6415 10.635 25.5632 11.6884 24.6079L12.9704 23.6396Z" fill="white"/>
<path d="M0.042818 20.6454L0 20.1246C0 19.697 0.190639 19.2725 0.429571 18.9179C0.61364 18.6447 0.812563 18.3463 1.05265 18.1873C1.40197 17.956 2.19951 17.6705 2.61794 17.6494L2.62883 17.6491H3.34091C3.50127 17.6491 3.91678 17.7694 4.26827 17.8543C4.56076 17.9248 4.84709 18.0671 5.04366 18.2949L5.32903 18.5955C5.59071 18.8712 5.90052 19.0967 6.24323 19.261C6.49506 19.3818 6.76196 19.4682 7.03678 19.518L7.42209 19.5877C7.54876 19.6107 7.67076 19.6544 7.78311 19.7173L7.99586 19.8363C8.30399 20.0087 8.68769 19.9656 8.94995 19.7293C9.02829 19.6587 9.11944 19.6037 9.21848 19.5675L9.36267 19.5147C9.55694 19.4436 9.73577 19.3359 9.88944 19.1974L10.0488 19.0538C10.1579 18.9554 10.2854 18.8797 10.4238 18.8309L10.8402 18.684C10.8946 18.6648 10.9546 18.6713 11.0037 18.7016C11.1474 18.7904 11.1128 19.0085 10.9487 19.0485L10.8423 19.0744C10.8158 19.0809 10.7906 19.0919 10.7679 19.107L10.3689 19.3712L10.3444 19.4118C10.2317 19.5983 10.262 19.8377 10.4176 19.9903C10.5054 20.0764 10.6235 20.1246 10.7466 20.1246H11.824H11.9206C11.9742 20.1246 12.0221 20.158 12.0407 20.2083C12.0719 20.2927 12.0144 20.3837 11.9248 20.3916L11.7374 20.4083C11.7127 20.4105 11.6884 20.416 11.6651 20.4246L10.245 20.9498L11.8878 20.5949C11.9824 20.5745 12.0717 20.6466 12.0717 20.7433C12.0717 20.8202 12.0142 20.885 11.9379 20.8941L11.6956 20.9232L11.4525 20.9498L11.2977 21.0574C11.2035 21.1078 11.2442 21.2509 11.3507 21.2443L11.9409 21.2075V21.2727V21.3496C11.9015 21.3952 11.8461 21.424 11.7862 21.4299L10.8333 21.5238L10.7953 21.5358C10.6946 21.5677 10.7287 21.7179 10.8333 21.7032L11.6633 21.7687C11.7233 21.7734 11.779 21.8016 11.8182 21.8471V21.9182H11.6343L11.2663 21.9892L11.1977 22.0091C11.0805 22.0431 10.959 22.0603 10.837 22.0603H10.653H10.3464H10.2922C10.165 22.0603 10.038 22.0707 9.91247 22.0915L9.76507 22.1159C9.69311 22.1277 9.62004 22.1316 9.54722 22.1274L9.45329 22.122C9.19257 22.1069 8.95542 21.9661 8.81729 21.7445C8.70093 21.5578 8.51315 21.4269 8.2977 21.3823L7.93539 21.3073C7.82423 21.2843 7.71101 21.2728 7.5975 21.2728H7.20419C6.75662 21.2728 6.3111 21.3331 5.87965 21.4521L5.32236 21.6315L4.08395 21.8827L3.21707 21.9902L2.67063 22.1186C2.3359 22.1972 1.98971 22.2146 1.64878 22.17L1.13809 22.1031C0.918955 22.0745 0.713029 21.9822 0.545749 21.8378C0.389445 21.7028 0.273069 21.5277 0.209241 21.3313L0.134113 21.1001C0.0861671 20.9526 0.05553 20.8 0.042818 20.6454Z" fill="white"/>
</g>
<path id="Vector 9" d="M44.0638 20.795L46.0054 21.4881L44.0638 22.1813V21.3434V20.795Z" fill="white"/>
<path id="Vector 1" d="M13.7964 22.0815H14.1948C14.3135 22.0815 14.4098 21.9853 14.4098 21.8665C14.4098 21.7478 14.4882 21.6515 14.585 21.6515H14.7978C14.8117 21.6515 14.8255 21.6495 14.8389 21.6455L15.614 21.416C15.6477 21.406 15.6782 21.3841 15.7016 21.3528L15.9539 21.0175C15.9929 20.9658 16.0087 20.8939 15.9962 20.8251L15.9112 20.3559L15.911 20.3548C15.9033 20.3122 15.9065 20.2684 15.9203 20.2274L16.0854 19.7354L16.0855 19.7351L16.0872 19.7301C16.098 19.6977 16.1169 19.6687 16.142 19.6456L16.1423 19.6453L16.5254 19.2928C16.5551 19.2655 16.5769 19.2274 16.5878 19.184L16.6801 18.8159C16.6852 18.7954 16.6878 18.7741 16.6878 18.7527V18.274C16.6878 18.2564 16.6861 18.2389 16.6826 18.2219L16.5747 17.6923C16.5722 17.6803 16.5689 17.6685 16.5648 17.6572L16.4693 17.3934L16.4692 17.3931C16.4593 17.3657 16.4542 17.3368 16.4542 17.3077V17.3061V17.0522V17.0431C16.4542 16.988 16.4744 16.9348 16.511 16.8937L16.792 16.5777C16.8004 16.5682 16.8081 16.5577 16.8149 16.5464L16.9838 16.2638C17.054 16.1462 17.0106 15.9788 16.8979 15.9327L16.771 15.8808C16.7186 15.8594 16.6791 15.8148 16.6643 15.7602L16.6601 15.7448L16.611 15.5638C16.5871 15.476 16.5201 15.4168 16.4447 15.4168H15.7329C15.6901 15.4168 15.6492 15.3987 15.6205 15.367L15.6159 15.362L15.6156 15.3616L15.4235 15.1495C15.3914 15.114 15.3496 15.0943 15.3063 15.0943H14.568C14.5408 15.0943 14.5139 15.1021 14.4896 15.117L13.7514 15.5699C13.7235 15.587 13.6999 15.6129 13.6829 15.645L13.3551 16.2636L13.3549 16.264L13.3525 16.2685C13.3372 16.2974 13.3144 16.3216 13.2865 16.3387L12.5064 16.8173C12.4718 16.8386 12.4438 16.8733 12.427 16.9161L12.0653 17.8353L12.2232 17.4369L12.0486 17.9488L12.1286 18.9957C12.1307 19.0222 12.1367 19.048 12.1464 19.0718L12.3851 19.6575C12.3914 19.673 12.3992 19.6874 12.4083 19.7006L12.8789 20.3799C12.887 20.3916 12.8939 20.404 12.8996 20.4169L12.8999 20.4177L13.2863 21.3026L13.2865 21.303C13.3131 21.3643 13.314 21.4376 13.2887 21.4999L13.2886 21.5003L13.1787 21.7699L13.1782 21.7711C13.0658 22.0463 12.71 22.4094 12.51 22.5953L11.6148 23.3265C11.2035 23.625 10.8274 23.9705 10.4559 24.3172C10.3076 24.4556 10.1594 24.5898 10.0418 24.6964C9.39634 25.2816 9.02749 25.7072 8.70475 26.1061L7.81641 27.4018C7.59459 27.7254 7.40413 28.0693 7.2476 28.429L7.21589 28.5019C6.79857 29.4608 6.51852 30.4738 6.38401 31.511C6.29851 32.6498 6.33319 33.7945 6.48747 34.9261L6.49663 34.9933L6.74195 36.4147L6.58678 33.5009C6.58678 32.698 6.67803 31.8978 6.85876 31.1156L6.99729 30.516L7.14972 30.003C7.37086 29.2587 7.69087 28.5474 8.1012 27.8882L8.8271 26.769L9.50172 25.9836L10.2377 25.2018L10.7896 24.6964L11.1576 24.349L11.4497 24.0845C11.4497 24.0845 11.5993 23.94 11.9403 23.674L12.3696 23.3265L13.648 22.2605C13.6654 22.2423 13.6818 22.2248 13.6969 22.2081L13.698 22.207C13.745 22.1552 13.78 22.1118 13.7964 22.0815Z" fill="white"/>
</g>
<path id="Vector 14" d="M15.5572 32.4562L18.6644 42.5738L19.5432 41.8785L15.5572 32.4562Z" fill="white"/>
<path id="Vector 15" d="M16.1045 13.6334L19.399 1.04895L20.6193 1.19035L16.1045 13.6334Z" fill="white"/>
</g>
</svg>
</svg>
